<?xml version="1.0" encoding="UTF-8"?>
<!DOCTYPE svg PUBLIC "-//W3C//DTD SVG 1.1//EN" "http://www.w3.org/Graphics/SVG/1.1/DTD/svg11.dtd">
<svg version="1.1" xmlns="http://www.w3.org/2000/svg" xmlns:xlink="http://www.w3.org/1999/xlink" width="1000" height="1000"  xml:space="preserve" id="rosaL">
    <!-- Generated by PaintCode (www.paintcodeapp.com) -->
    <defs>
        <linearGradient id="rosaL-gradienteHojas-hoja5" x1="31.22" y1="0" x2="31.22" y2="181.69" gradientUnits="userSpaceOnUse" >
            <stop offset="0" stop-color="rgb(0, 154, 3)" stop-opacity="1" />
            <stop offset="0.76" stop-color="rgb(0, 131, 3)" stop-opacity="1" />
            <stop offset="1" stop-color="rgb(0, 108, 2)" stop-opacity="1" />
        </linearGradient>
        <linearGradient id="rosaL-gradienteHojas-hoja4" x1="31.22" y1="0" x2="31.22" y2="181.69" gradientUnits="userSpaceOnUse" >
            <stop offset="0" stop-color="rgb(0, 154, 3)" stop-opacity="1" />
            <stop offset="0.76" stop-color="rgb(0, 131, 3)" stop-opacity="1" />
            <stop offset="1" stop-color="rgb(0, 108, 2)" stop-opacity="1" />
        </linearGradient>
        <linearGradient id="rosaL-gradienteHojas-hoja3" x1="31.22" y1="0" x2="31.22" y2="181.69" gradientUnits="userSpaceOnUse" >
            <stop offset="0" stop-color="rgb(0, 154, 3)" stop-opacity="1" />
            <stop offset="0.76" stop-color="rgb(0, 131, 3)" stop-opacity="1" />
            <stop offset="1" stop-color="rgb(0, 108, 2)" stop-opacity="1" />
        </linearGradient>
        <linearGradient id="rosaL-gradienteHojas-hoja2" x1="31.22" y1="0" x2="31.22" y2="181.69" gradientUnits="userSpaceOnUse" >
            <stop offset="0" stop-color="rgb(0, 154, 3)" stop-opacity="1" />
            <stop offset="0.76" stop-color="rgb(0, 131, 3)" stop-opacity="1" />
            <stop offset="1" stop-color="rgb(0, 108, 2)" stop-opacity="1" />
        </linearGradient>
        <linearGradient id="rosaL-gradienteHojas-hoja1" x1="31.22" y1="0" x2="31.22" y2="181.69" gradientUnits="userSpaceOnUse" >
            <stop offset="0" stop-color="rgb(0, 154, 3)" stop-opacity="1" />
            <stop offset="0.76" stop-color="rgb(0, 131, 3)" stop-opacity="1" />
            <stop offset="1" stop-color="rgb(0, 108, 2)" stop-opacity="1" />
        </linearGradient>
        <radialGradient id="rosaL-gradienteRosa-petalos" cx="498.65" cy="500.2"  r="274.06" fx="498.65" fy="500.2" gradientUnits="userSpaceOnUse" >
            <stop offset="0.364" stop-color="rgb(191, 191, 191)" stop-opacity="1" />
            <stop offset="0.529" stop-color="rgb(223, 223, 223)" stop-opacity="1" />
            <stop offset="1" stop-color="rgb(255, 255, 255)" stop-opacity="1" />
        </radialGradient>
        <radialGradient id="rosaL-gradienteCorazon-corazon" cx="498.77" cy="494.55"  r="101.41" fx="498.05" fy="463.55" gradientUnits="userSpaceOnUse" >
            <stop offset="0.078" stop-color="rgb(243, 194, 200)" stop-opacity="1" />
            <stop offset="0.209" stop-color="rgb(226, 102, 118)" stop-opacity="1" />
            <stop offset="1" stop-color="rgb(208, 10, 36)" stop-opacity="1" />
        </radialGradient>
    </defs>
    <path id="rosaL-circuloAmarillo" stroke="rgb(0, 0, 0)" stroke-width="3.5" stroke-miterlimit="10" fill="rgb(255, 214, 20)" d="M 939.1,498.15 C 939.1,739.72 742.19,935.55 499.3,935.55 256.41,935.55 59.5,739.72 59.5,498.15 59.5,256.58 256.41,60.75 499.3,60.75 742.19,60.75 939.1,256.58 939.1,498.15 Z M 939.1,498.15" />
    <path id="rosaL-circuloAzul" stroke="rgb(0, 0, 0)" stroke-width="3.5" stroke-miterlimit="4" fill="rgb(22, 93, 176)" d="M 467.43,109.56 C 488.21,107.72 509.14,108.12 529.92,109.66 607.36,115.36 682.66,145.27 743.31,193.67 772.43,217.08 798.66,244.29 820.01,275 842.83,307.13 860.84,342.75 872.75,380.33 877.78,395.39 881.78,410.78 884.72,426.38 888.7,448.37 891.66,470.62 891.7,493 893.26,556.82 878.85,621.02 850,677.99 820.53,736.69 776.03,787.72 721.94,824.97 651.33,874.23 563.96,898.76 478.03,893.91 410.36,890.4 343.57,869.19 286.7,832.26 224.48,792.65 174.1,734.89 142.76,668.16 113.43,605.78 101.09,535.57 107.26,466.93 110.89,425.55 121.03,384.72 137.46,346.56 153.43,309.54 175.04,274.93 201.41,244.43 233.44,207.46 272.31,176.37 315.63,153.6 329.97,145.66 345.21,139.52 360.36,133.34 366.84,131.23 373.23,128.87 379.69,126.69 408.2,117.78 437.64,111.86 467.43,109.56 Z M 467.43,109.56" />
    <path id="rosaL-hoja5" stroke="rgb(0, 0, 0)" stroke-width="1.5" stroke-linecap="round" stroke-linejoin="round" stroke-miterlimit="4" fill="url(#rosaL-gradienteHojas-hoja5)" d="M 53.72,31.25 C 50.72,19.8 36.55,-0.05 31.22,0 25.97,0.05 11.72,19.8 8.72,31.25 -3.28,77.04 -2.53,141 8.72,164.25 19.97,187.5 42.47,187.5 53.72,164.25 64.97,141 65.72,77.05 53.72,31.25 Z M 53.72,31.25" transform="translate(148.28, 642.75) rotate(-111)"  />
    <path id="rosaL-hoja4" stroke="rgb(0, 0, 0)" stroke-width="1.5" stroke-linecap="round" stroke-linejoin="round" stroke-miterlimit="4" fill="url(#rosaL-gradienteHojas-hoja4)" d="M 53.72,31.25 C 50.72,19.8 36.55,-0.05 31.22,0 25.97,0.05 11.72,19.8 8.72,31.25 -3.28,77.04 -2.53,141 8.72,164.25 19.97,187.5 42.47,187.5 53.72,164.25 64.97,141 65.72,77.05 53.72,31.25 Z M 53.72,31.25" transform="translate(528.28, 880.75) rotate(180)"  />
    <path id="rosaL-hoja3" stroke="rgb(0, 0, 0)" stroke-width="1.5" stroke-linecap="round" stroke-linejoin="round" stroke-miterlimit="4" fill="url(#rosaL-gradienteHojas-hoja3)" d="M 53.72,31.25 C 50.72,19.8 36.55,-0.05 31.22,0 25.97,0.05 11.72,19.8 8.72,31.25 -3.28,77.04 -2.53,141 8.72,164.25 19.97,187.5 42.47,187.5 53.72,164.25 64.97,141 65.72,77.05 53.72,31.25 Z M 53.72,31.25" transform="translate(865.28, 589.75) rotate(106)"  />
    <path id="rosaL-hoja2" stroke="rgb(0, 0, 0)" stroke-width="1.5" stroke-linecap="round" stroke-linejoin="round" stroke-miterlimit="4" fill="url(#rosaL-gradienteHojas-hoja2)" d="M 53.72,31.25 C 50.72,19.8 36.55,-0.05 31.22,0 25.97,0.05 11.72,19.8 8.72,31.25 -3.28,77.04 -2.53,141 8.72,164.25 19.97,187.5 42.47,187.5 53.72,164.25 64.97,141 65.72,77.05 53.72,31.25 Z M 53.72,31.25" transform="translate(701.28, 182.75) rotate(33)"  />
    <path id="rosaL-hoja1" stroke="rgb(0, 0, 0)" stroke-width="1.5" stroke-linecap="round" stroke-linejoin="round" stroke-miterlimit="4" fill="url(#rosaL-gradienteHojas-hoja1)" d="M 53.72,31.25 C 50.72,19.8 36.55,-0.05 31.22,0 25.97,0.05 11.72,19.8 8.72,31.25 -3.28,77.04 -2.53,141 8.72,164.25 19.97,187.5 42.47,187.5 53.72,164.25 64.97,141 65.72,77.05 53.72,31.25 Z M 53.72,31.25" transform="translate(257.28, 209.75) rotate(-34)"  />
    <path id="rosaL-petalos" stroke="rgb(0, 0, 0)" stroke-width="1.5" stroke-linecap="round" stroke-linejoin="round" stroke-miterlimit="4" fill="url(#rosaL-gradienteRosa-petalos)" d="M 499.61,138.5 C 506.33,145.55 513.84,152.17 523.01,155.58 534.4,159.85 546.71,159.35 558.63,160.2 584.47,161.74 610.51,161.71 636.1,166.12 652.35,169.1 669.41,174.94 680.04,188.66 686.68,197.52 692.92,211.49 690.65,223.11 687.71,237.89 678.55,250.29 669.63,261.9 657.02,278.41 642.04,293.12 631.41,311.17 626.96,318.39 624.63,327.89 628.46,335.92 633.48,347.6 648.63,353.21 659.7,347.27 667.53,343.24 671.49,334.73 675.44,327.2 685.87,306.82 689.49,283.54 700.49,263.45 706.24,252.64 716.26,244 728.14,241.38 737.57,238.68 747.98,239.92 756.46,244.97 769.1,252.2 777.68,264.71 785.02,277.13 796.78,297.59 804.65,320.01 814.46,341.44 817.63,347.95 820.82,354.61 825.6,360.07 832.84,367.65 840.16,375.26 848.71,381.32 843.83,389.3 839.76,398.07 838.8,407.54 837.29,418.85 840.53,429.99 842.8,440.95 847.41,462.38 852.79,483.64 856.66,505.22 859.4,521.65 861.65,538.75 857.77,555.2 854.61,568.92 845.74,580.91 834.24,588.47 824.93,593.75 813.73,591.96 803.89,589.41 783.04,583.6 764.1,572.64 744.36,563.92 735.17,560.06 725.63,555.74 715.49,556.25 707.04,556.44 698.74,561.47 694.99,569.31 691.45,576.26 691.37,585.18 695.53,591.88 698.58,596.89 703.69,600.27 709.14,601.96 723.87,606.81 739.45,607.84 754.81,608.63 768.69,609.52 783,609.93 796.06,615.38 810.29,621.38 820.44,636.03 821.63,651.69 822.16,661.94 818.53,671.93 813.38,680.56 799.86,702.47 779.54,718.55 760.19,734.7 750.62,742.91 740.32,750.48 732.33,760.39 724.52,771.7 717.42,784.48 716.66,798.62 711.44,797.6 706.21,796.54 700.89,796.44 690.82,796.11 680.93,799.32 672.25,804.4 648.16,818.43 625,834.11 600.51,847.41 587.39,854.2 573.55,860.44 558.74,861.72 545.81,862.83 532.8,858.42 522.4,850.65 517.26,846.84 513.99,840.9 512.39,834.7 509.13,822.24 510.35,809.19 511.78,796.55 514.3,774.4 520.16,752.55 519.68,730.12 519.63,722.83 517.3,714.79 511.11,710.55 500.78,702.92 484.64,707 478.6,718.41 474.67,725.27 475.46,733.52 475.89,741.13 477.41,766.17 486.7,790.31 485.45,815.57 484.39,831.56 475.36,846.98 461.51,854.67 451.99,859.82 440.69,859.98 430.36,857.71 415.18,854.22 401.19,846.88 387.82,838.93 371.22,829.01 355.67,817.35 338.96,807.61 330.03,802.27 319.8,799.8 309.63,798.48 302.79,797.62 295.78,797.67 289.08,799.47 288.09,791.56 286.72,783.53 283.12,776.36 277.55,764.28 266.69,756.26 256.96,747.9 240.2,733.57 222.88,719.91 206.74,704.84 195.18,693.73 183.6,681.78 177.38,666.57 172.07,654.05 172.14,639.49 176.6,626.73 176.79,626.31 179.88,620.49 180.03,620.32 190.09,608.54 205.17,603.41 219.41,599.25 240.17,593.25 261.81,590.33 281.98,582.28 289.36,579.59 296.56,574.2 298.6,566.08 301.97,553.79 293.97,539.7 281.89,536.62 276.68,535.14 271.17,536.07 266.22,538.08 251.34,543.75 238.19,553.07 225.29,562.37 214.8,569.76 204.08,577.32 191.8,581.22 181.63,584.47 170.38,583.13 160.93,578.24 160.62,578.08 151.3,571.92 148.11,567.97 140.13,558.02 137.68,544.71 137.47,532.14 137.16,505.83 144.33,480.3 149.96,454.86 152.06,444.88 154.6,434.82 154.39,424.54 153.44,411.5 151.41,397.93 144.16,386.85 152.66,383.52 161,379.15 167.35,372.31 175.18,364.53 179.23,353.92 183.91,344.06 193.91,323.14 202.91,301.7 213.79,281.23 221.32,267.48 229.71,253.6 242.19,243.99 252.57,235.67 266.18,232.28 279.2,233.3 286.26,234.02 292.37,238.27 297.47,243.06 303.89,249.38 308.9,256.99 313.63,264.66 323.4,281.53 330.96,299.62 340.52,316.61 343.74,322.17 347.07,327.76 351.45,332.46 355.99,337.36 362.59,340.57 369.27,339.86 379.7,339.04 388.89,330.25 390.49,319.67 391.45,313.46 389.61,307.07 386.12,301.98 374.14,283.37 356.17,270.28 340.67,255.04 331.77,246.1 323.35,235.49 321.37,222.5 319.6,210.23 322.92,193.8 331.33,184.66 340.66,174.45 354.13,169.7 367.18,166.88 396.66,160.58 426.96,163.98 456.75,161.21 465.82,160.29 474.37,156.68 482.46,152.55 488.94,149 495.09,144.51 499.61,138.5 Z M 499.61,138.5" />
    <path id="rosaL-linea15" stroke="rgb(0, 0, 0)" stroke-width="2.5" stroke-linecap="round" stroke-linejoin="round" stroke-miterlimit="4" fill="none" d="M 472,304 C 472,242 450,219 437,206" />
    <path id="rosaL-linea14" stroke="rgb(0, 0, 0)" stroke-width="2.5" stroke-linecap="round" stroke-linejoin="round" stroke-miterlimit="4" fill="none" d="M 497.53,314.19 C 497.6,291 497.87,198.26 497.94,175.08" />
    <path id="rosaL-linea13" stroke="rgb(0, 0, 0)" stroke-width="2.5" stroke-linecap="round" stroke-linejoin="round" stroke-miterlimit="4" fill="none" d="M 522,306 C 528,246 542,223 555,206" />
    <path id="rosaL-linea12" stroke="rgb(0, 0, 0)" stroke-width="2.5" stroke-linecap="round" stroke-linejoin="round" stroke-miterlimit="4" fill="none" d="M 694,404 C 744,386 759,367 773,347" />
    <path id="rosaL-linea11" stroke="rgb(0, 0, 0)" stroke-width="2.5" stroke-linecap="round" stroke-linejoin="round" stroke-miterlimit="4" fill="none" d="M 685.89,435.46 C 708.14,428.75 797.17,401.92 819.43,395.22" />
    <path id="rosaL-linea10" stroke="rgb(0, 0, 0)" stroke-width="2.5" stroke-linecap="round" stroke-linejoin="round" stroke-miterlimit="4" fill="none" d="M 704,460 C 754,461 777,468 803,481" />
    <path id="rosaL-linea9" stroke="rgb(0, 0, 0)" stroke-width="2.5" stroke-linecap="round" stroke-linejoin="round" stroke-miterlimit="4" fill="none" d="M 638,634 C 676,669 695,679 737,682" />
    <path id="rosaL-linea8" stroke="rgb(0, 0, 0)" stroke-width="2.5" stroke-linecap="round" stroke-linejoin="round" stroke-miterlimit="4" fill="none" d="M 606,644 C 620.1,662.5 676.9,743.5 691,762" />
    <path id="rosaL-linea7" stroke="rgb(0, 0, 0)" stroke-width="2.5" stroke-linecap="round" stroke-linejoin="round" stroke-miterlimit="4" fill="none" d="M 589,671 C 610,722 610,743 609,776" />
    <path id="rosaL-linea6" stroke="rgb(0, 0, 0)" stroke-width="2.5" stroke-linecap="round" stroke-linejoin="round" stroke-miterlimit="4" fill="none" d="M 405,671 C 383,715 380,733 383,770" />
    <path id="rosaL-linea5" stroke="rgb(0, 0, 0)" stroke-width="2.5" stroke-linecap="round" stroke-linejoin="round" stroke-miterlimit="4" fill="none" d="M 388,647 C 369,675 341,715 311,762" />
    <path id="rosaL-linea4" stroke="rgb(0, 0, 0)" stroke-width="2.5" stroke-linecap="round" stroke-linejoin="round" stroke-miterlimit="4" fill="none" d="M 357,634 C 329,662 308,680 276,687" />
    <path id="rosaL-linea3" stroke="rgb(0, 0, 0)" stroke-width="2.5" stroke-linecap="round" stroke-linejoin="round" stroke-miterlimit="4" fill="none" d="M 278,458 C 233,448 208,448 177,458" />
    <path id="rosaL-linea2" stroke="rgb(0, 0, 0)" stroke-width="2.5" stroke-linecap="round" stroke-linejoin="round" stroke-miterlimit="4" fill="none" d="M 299.06,436.21 C 280,430.28 203.74,406.57 184.67,400.64" />
    <path id="rosaL-linea1" stroke="rgb(0, 0, 0)" stroke-width="2.5" stroke-linecap="round" stroke-linejoin="round" stroke-miterlimit="4" fill="none" d="M 297,403 C 261,386 239,369 224,345" />
    <path id="rosaL-corazon" stroke="rgb(0, 0, 0)" stroke-width="2.5" stroke-linecap="round" stroke-linejoin="round" stroke-miterlimit="4" fill="url(#rosaL-gradienteCorazon-corazon)" d="M 419.95,335.09 C 435.8,332.58 452.13,336.15 466.37,343.26 478.71,349.55 489.88,358.07 499.33,368.2 511.29,355.58 525.71,344.95 542.16,339.05 557.25,333.45 574.16,332.75 589.58,337.45 605.67,342.27 619.92,352.06 631.69,363.93 646.12,377.71 657.88,394.6 664.36,413.59 672.77,437.22 673.07,463.16 668.16,487.58 661.36,521 645.45,551.93 625.57,579.38 592.49,624.54 548.46,661.14 499.52,687.97 488.07,682.33 433.78,651.59 380.37,589.07 358.98,561.72 341.38,530.82 332.61,497.02 326.14,471.86 324.88,444.88 332.28,419.77 338.1,398.92 350.25,380.26 365.58,365.14 380.25,350.22 398.87,337.98 419.95,335.09 Z M 419.95,335.09" />
    <path id="rosaL-cruz" stroke="none" fill="rgb(0, 0, 0)" d="M 475,384.3 L 524.77,384.3 524.77,437.11 581.77,437.11 581.77,479.16 524.77,479.16 524.77,645.56 475,645.56 475,479.16 418,479.16 418,437.11 475,437.11 475,384.3 Z M 475,384.3" />
</svg>
